<?xml version="1.0" standalone="no"?><!DOCTYPE svg PUBLIC "-//W3C//DTD SVG 1.1//EN" "http://www.w3.org/Graphics/SVG/1.1/DTD/svg11.dtd"><svg t="1689489709387" class="icon" viewBox="0 0 1024 1024" version="1.1" xmlns="http://www.w3.org/2000/svg" p-id="9114" width="200" height="200" xmlns:xlink="http://www.w3.org/1999/xlink"><path d="M885.5552 531.968a23.04 23.04 0 0 1 2.8928 45.9264l-2.8928 0.1792H132.2752a23.04 23.04 0 0 1-2.8928-45.9008l2.8928-0.1792h753.28z" fill="#107ae6" p-id="9115"></path><path d="M519.2448 98.6624C287.232 98.6624 98.56 288.4608 98.56 521.728c0 233.2416 188.6208 422.9376 420.6848 422.9376 231.936 0 420.5568-189.696 420.6848-422.912 0-233.2672-188.672-423.0912-420.6848-423.0912z m0 46.08c206.5152 0 374.6048 169.1136 374.6048 376.9856-0.128 207.872-168.192 376.8576-374.6048 376.8576-206.5664 0-374.6048-169.0112-374.6048-376.832 0-207.8976 168.0896-377.0112 374.6048-377.0112z" fill="#107ae6" p-id="9116"></path><path d="M512.8448 98.56c44.1856 0 82.6368 32.8448 112.6912 91.264a23.04 23.04 0 0 1-40.96 21.0944c-23.0144-44.6976-48.256-66.2784-71.7312-66.2784-67.3792 0-130.56 164.5568-130.56 376.96 0 212.4288 63.1808 376.9856 130.56 376.9856 67.456 0 130.6368-164.5056 130.56-376.9856 0-15.7952-0.3072-30.7968-0.9472-44.8768a23.04 23.04 0 1 1 46.0288-2.048c0.6656 14.7712 0.9984 30.464 0.9984 46.9248 0.0768 236.1856-71.7056 423.0656-176.64 423.0656-104.8576 0-176.64-186.9312-176.64-423.0656 0-236.1088 71.7824-423.04 176.64-423.04z" fill="#107ae6" p-id="9117"></path><path d="M512.8192 98.56c104.8576 0 176.64 186.9312 176.64 423.04 0 236.1344-71.7824 423.0656-176.64 423.0656-104.9344 0-176.7168-186.88-176.64-423.0656 0-16.4608 0.3328-32.1536 0.9984-46.9504a23.04 23.04 0 0 1 46.0288 2.048c-0.64 14.08-0.9216 29.1072-0.9216 44.928-0.1024 212.4544 63.104 376.96 130.5344 376.96 67.3792 0 130.56-164.5568 130.56-376.9856 0-212.4032-63.1808-376.96-130.56-376.96-23.4752 0-48.7424 21.5808-71.7312 66.304a23.04 23.04 0 0 1-40.96-21.0944c30.0544-58.4448 68.5056-91.2896 112.6912-91.2896z" fill="#107ae6" p-id="9118"></path></svg>